<svg xmlns="http://www.w3.org/2000/svg" xmlns:xlink="http://www.w3.org/1999/xlink" width="512" height="512" viewBox="0 130 145 145">
<g data-name="icon" fill="#ffffff" data="id:6306673" transform="translate(7.989333333333333,135.82933333333335) scale(2.0053333333333336)">
  <path fill-rule="evenodd" clip-rule="evenodd" d="M49.9502 8.55654C49.7432 7.64607 48.9337 7 48 7C47.0663 7 46.2568 7.64607 46.0498 8.55654L44.9432 13.4229C44.4314 15.6738 42.6738 17.4314 40.4229 17.9432L35.5565 19.0498C34.6461 19.2568 34 20.0663 34 21C34 21.9337 34.6461 22.7432 35.5565 22.9502L40.4229 24.0568C42.6738 24.5686 44.4314 26.3262 44.9432 28.5771L46.0498 33.4435C46.2568 34.3539 47.0663 35 48 35C48.9337 35 49.7432 34.3539 49.9502 33.4435L51.0568 28.5771C51.5686 26.3262 53.3262 24.5686 55.5771 24.0568L60.4435 22.9502C61.3539 22.7432 62 21.9337 62 21C62 20.0663 61.3539 19.2568 60.4435 19.0498L55.5771 17.9432C53.3262 17.4314 51.5686 15.6738 51.0568 13.4229L49.9502 8.55654ZM43.6384 21C45.5142 20.0427 47.0427 18.5142 48 16.6384C48.9573 18.5142 50.4858 20.0427 52.3616 21C50.4858 21.9573 48.9573 23.4858 48 25.3616C47.0427 23.4858 45.5142 21.9573 43.6384 21Z"></path><path d="M16 17H32.9994C31.7714 17.9219 31 19.3868 31 21H16C10.4772 21 6 25.4772 6 31V45.3699C6 49.5839 9.41613 53 13.6301 53C15.8304 53 17.9235 52.0502 19.3724 50.3943L24.4742 44.5637C28.4583 40.0104 35.5416 40.0104 39.5258 44.5637L44.6276 50.3943C46.0765 52.0502 48.1696 53 50.3699 53C54.5839 53 58 49.5839 58 45.3699V31C58 29.4971 57.6685 28.0717 57.0746 26.7928L61.0387 25.8914C61.6593 27.4741 62 29.1973 62 31V45.3699C62 51.793 56.793 57 50.3699 57C47.0162 57 43.8257 55.5523 41.6173 53.0284L36.5155 47.1977C34.125 44.4657 29.875 44.4657 27.4845 47.1977L22.3827 53.0284C20.1743 55.5523 16.9838 57 13.6301 57C7.20699 57 2 51.793 2 45.3699V31C2 23.268 8.26801 17 16 17Z"></path><path d="M12 33C12 31.8954 12.8954 31 14 31H16V29C16 27.8954 16.8954 27 18 27C19.1046 27 20 27.8954 20 29V31H22C23.1046 31 24 31.8954 24 33C24 34.1046 23.1046 35 22 35H20V37C20 38.1046 19.1046 39 18 39C16.8954 39 16 38.1046 16 37V35H14C12.8954 35 12 34.1046 12 33Z"></path></g></svg>